<svg xmlns="http://www.w3.org/2000/svg" width="40" height="40" viewBox="0 0 40 40">
  <defs>
    <linearGradient id="waterGradient" x1="0%" y1="0%" x2="0%" y2="100%">
      <stop offset="0%" stop-color="#00A1D6" />
      <stop offset="100%" stop-color="#003087" />
    </linearGradient>
  </defs>
  <circle cx="20" cy="20" r="18" fill="white" stroke="#003087" stroke-width="2" />
  <path d="M20 6 C 13 6, 10 14, 10 20 C 10 26, 14 32, 20 32 C 26 32, 30 26, 30 20 C 30 14, 27 6, 20 6 Z" fill="url(#waterGradient)" />
  <path d="M15 16 C 15 18, 17 20, 19 20 C 21 20, 21 18, 21 16 C 21 14, 19 12, 19 12 C 19 12, 15 14, 15 16 Z" fill="white" opacity="0.6" />
</svg>
